<?xml version="1.0" encoding="UTF-8" standalone="no"?>
<svg
   viewBox="0 0 2306.7666 1945.1796"
   width="297.26373"
   height="250.80101"
   version="1.1"
   id="svg3"
   sodipodi:docname="GCash-logo-4.svg"
   inkscape:version="1.3 (0e150ed6c4, 2023-07-21)"
   xmlns:inkscape="http://www.inkscape.org/namespaces/inkscape"
   xmlns:sodipodi="http://sodipodi.sourceforge.net/DTD/sodipodi-0.dtd"
   xmlns="http://www.w3.org/2000/svg"
   xmlns:svg="http://www.w3.org/2000/svg"
   xmlns:rdf="http://www.w3.org/1999/02/22-rdf-syntax-ns#"
   xmlns:cc="http://creativecommons.org/ns#"
   xmlns:dc="http://purl.org/dc/elements/1.1/">
  <defs
     id="defs3" />
  <sodipodi:namedview
     id="namedview3"
     pagecolor="#505050"
     bordercolor="#eeeeee"
     borderopacity="1"
     inkscape:showpageshadow="0"
     inkscape:pageopacity="0"
     inkscape:pagecheckerboard="0"
     inkscape:deskcolor="#d1d1d1"
     inkscape:zoom="1.2316035"
     inkscape:cx="367.40719"
     inkscape:cy="141.6852"
     inkscape:window-width="1920"
     inkscape:window-height="991"
     inkscape:window-x="-9"
     inkscape:window-y="-9"
     inkscape:window-maximized="1"
     inkscape:current-layer="svg3" />
  <title
     id="title1">GCash-logo-svg</title>
  <style
     id="style1">		.s0 { fill: #ffffff } 		.s1 { fill: none;stroke: #70baf7;stroke-linecap: round;stroke-width: 224 } 		.s2 { fill: none;stroke: #70baf7;stroke-linecap: round;stroke-width: 220 } 		.s3 { fill: none;stroke: #022db8;stroke-linecap: round;stroke-width: 230 } 		.s4 { fill: none;stroke: #ffffff;stroke-linecap: round;stroke-width: 230 } 	</style>
  <metadata
     id="metadata1">
    <rdf:RDF>
      <cc:Work
         rdf:about="">
        <dc:title>GCash-logo-svg</dc:title>
      </cc:Work>
    </rdf:RDF>
  </metadata>
  <path
     fill="#007cff"
     stroke="#007cff"
     stroke-width="0.437175"
     opacity="1"
     d="M 668.39328,47.304632 C 785.43968,9.0663918 909.94708,-6.7884778 1033.0555,1.138957 c 180.4659,9.792719 356.7348,73.678547 503.6256,178.600533 15.8549,11.658 33.1087,22.38339 46.632,37.30566 23.316,26.58019 32.6423,64.35208 24.2486,98.85978 -8.3937,37.30551 -37.7719,69.01525 -74.1448,80.20695 -35.4403,11.1917 -76.0101,3.73057 -104.4557,-20.05165 -109.5851,-84.4039 -242.9526,-137.56445 -380.517,-150.62135 -50.36262,-5.59593 -101.65782,-5.59593 -152.02042,0 -145.0254,14.45589 -285.3878,72.74582 -398.2371,165.54345 -127.3053,103.98933 -220.1031,250.41389 -256.47602,410.82796 -33.5751,145.49179 -23.316,301.24271 30.77714,440.67231 56.89098,148.2898 162.74568,276.5277 296.11318,362.3306 99.7923,63.8857 214.9734,103.5229 332.486,114.7146 45.6994,5.5958 92.3314,5.5958 137.56442,0.4664 142.2277,-12.1245 279.7919,-66.6838 392.6414,-153.8857 28.4455,-22.3832 69.0154,-28.9118 103.5231,-17.2538 47.5646,16.3212 81.6059,67.1502 75.5438,117.5126 -2.798,29.3781 -18.1865,57.3575 -41.5025,75.0776 -89.5334,69.948 -191.1912,123.5747 -299.3775,158.0824 -139.4296,44.7667 -289.58462,56.4248 -434.61012,36.3729 -160.8803,-22.3834 -315.6986,-86.7354 -445.3355,-184.6626 C 263.62768,1657.041 161.03733,1531.601 93.420902,1389.3734 27.203462,1249.9437 -4.972498,1094.1928 0.62327205,939.84094 5.752822,750.04873 68.705912,562.58809 179.69017,408.23618 299.06798,240.36115 472.07278,111.19046 668.39328,47.304632 Z"
     id="path1-4"
     style="stroke:none" />
  <path
     fill="#6fbaf7"
     stroke="#6fbaf7"
     stroke-width="0.437175"
     opacity="1"
     d="m 2032.8456,312.17436 c 48.4972,-14.45588 105.3883,8.39374 128.7041,54.09315 111.9169,218.70399 160.8805,468.6515 140.8286,713.46939 -13.9895,174.4036 -62.0205,346.4758 -142.6938,501.7603 -29.3781,55.4919 -108.1863,73.2122 -159.0151,36.8393 -47.0984,-30.311 -62.4868,-97.9272 -34.5077,-146.8908 155.7509,-305.9059 157.1499,-685.02407 3.2642,-991.86252 -13.9895,-25.18121 -21.4506,-55.02575 -14.4559,-83.4713 7.9275,-39.63709 39.1709,-73.2122 77.8756,-83.93752 z"
     id="path3-9"
     style="stroke:none" />
  <path
     fill="#002cb8"
     stroke="#002cb8"
     stroke-width="0.437175"
     opacity="1"
     d="m 653.47118,443.21027 c 197.7196,-119.37799 464.92102,-116.11364 657.04482,13.9895 47.5646,34.97409 57.3573,109.58527 20.518,155.7509 -33.1087,45.23302 -101.6577,58.75631 -148.756,28.44555 -74.6111,-47.56461 -165.0774,-68.08281 -252.74542,-57.82371 -87.6681,9.32634 -171.6058,49.8962 -233.1599,112.84946 -61.5543,61.08789 -101.6578,143.16021 -111.4505,229.42931 -8.8601,69.94801 2.7978,142.22762 31.7097,206.57982 38.2382,84.8701 107.72,155.2845 192.5901,194.4554 86.7356,41.0361 188.3932,47.5646 279.79202,19.119 122.1758,-37.3055 223.3672,-138.497 258.3413,-261.139 -87.6683,0.4662 -175.3364,0 -263.0044,0 -41.9689,0 -82.5387,-26.114 -99.79262,-63.8859 -21.4506,-43.36777 -10.2589,-99.79249 26.11402,-131.50223 18.6528,-16.78747 43.3676,-27.97917 68.549,-28.91177 132.4349,-0.9326 264.4034,-0.46639 396.8383,-0.46639 43.3676,-1.39898 85.3365,25.64759 102.5903,65.28485 14.9223,30.77714 10.259,65.75106 8.3938,98.85974 -11.6581,143.6266 -76.4766,282.1237 -179.0669,383.7812 -98.3934,98.86 -231.2947,162.7459 -370.258,176.7354 -136.63182,14.9222 -277.92662,-18.1865 -394.04032,-92.3313 -117.0464,-74.145 -208.445,-189.326 -253.2117,-320.8281 -45.6994,-132.9013 -43.3678,-281.65725 4.1968,-413.62576 46.632,-130.56969 139.896,-243.41914 258.8076,-314.76597 z"
     id="path6"
     style="stroke:none" />
  <path
     fill="#6fbaf7"
     stroke="#6fbaf7"
     stroke-width="0.437175"
     opacity="1"
     d="m 1729.7375,504.29817 c 48.031,-12.59069 102.5904,12.1243 124.9738,56.42472 121.2431,256.47588 121.2431,567.04491 0,823.52091 -15.3885,30.3108 -46.1657,52.6942 -80.207,58.2899 -39.6372,6.995 -82.0723,-9.7927 -106.7873,-41.5024 -25.6476,-33.1087 -30.3108,-80.6733 -11.6581,-117.9788 90.4662,-196.3208 89.0673,-431.8124 -2.3316,-627.66677 -27.5128,-60.15513 11.6581,-137.09806 76.0102,-151.08756 z"
     id="path9"
     style="stroke:none" />
</svg>
