<?xml version="1.0" encoding="UTF-8" standalone="no"?>
<svg
   viewBox="0 0 3767.1927 3189.141"
   width="485.46298"
   height="411.1907"
   version="1.1"
   id="svg3"
   sodipodi:docname="GCash-logo-1.svg"
   inkscape:version="1.3 (0e150ed6c4, 2023-07-21)"
   xmlns:inkscape="http://www.inkscape.org/namespaces/inkscape"
   xmlns:sodipodi="http://sodipodi.sourceforge.net/DTD/sodipodi-0.dtd"
   xmlns="http://www.w3.org/2000/svg"
   xmlns:svg="http://www.w3.org/2000/svg">
  <defs
     id="defs3" />
  <sodipodi:namedview
     id="namedview3"
     pagecolor="#505050"
     bordercolor="#eeeeee"
     borderopacity="1"
     inkscape:showpageshadow="0"
     inkscape:pageopacity="0"
     inkscape:pagecheckerboard="0"
     inkscape:deskcolor="#d1d1d1"
     inkscape:zoom="0.87"
     inkscape:cx="300.57471"
     inkscape:cy="266.09195"
     inkscape:window-width="1920"
     inkscape:window-height="991"
     inkscape:window-x="-9"
     inkscape:window-y="-9"
     inkscape:window-maximized="1"
     inkscape:current-layer="svg3" />
  <title
     id="title1">GCash-logo-svg</title>
  <style
     id="style1">		.s0 { fill: #ffffff } 		.s1 { fill: none;stroke: #70baf7;stroke-linecap: round;stroke-width: 224 } 		.s2 { fill: none;stroke: #70baf7;stroke-linecap: round;stroke-width: 220 } 		.s3 { fill: none;stroke: #022db8;stroke-linecap: round;stroke-width: 230 } 		.s4 { fill: none;stroke: #ffffff;stroke-linecap: round;stroke-width: 230 } 	</style>
  <path
     fill="#007cff"
     stroke="#007cff"
     stroke-width="0.437175"
     opacity="1"
     d="m 1393.9833,47.304585 c 117.0464,-38.2382003 241.5538,-54.0931003 364.6622,-46.1656003 180.4659,9.7927003 356.7348,73.6785003 503.6256,178.6004953 15.8549,11.658 33.1087,22.3834 46.632,37.3057 23.316,26.5801 32.6423,64.352 24.2486,98.8597 -8.3937,37.3055 -37.7719,69.0153 -74.1448,80.207 -35.4403,11.1917 -76.0101,3.7306 -104.4557,-20.0517 -109.5851,-84.4039 -242.9526,-137.5644 -380.517,-150.6213 -50.3626,-5.5959 -101.6578,-5.5959 -152.0204,0 -145.0254,14.4559 -285.3878,72.7458 -398.2371,165.5434 -127.3053,103.9894 -220.1031,250.4139 -256.476,410.828 -33.5751,145.4918 -23.316,301.24272 30.7771,440.67232 56.891,148.2898 162.7457,276.5277 296.1132,362.3306 99.7923,63.8857 214.9734,103.5229 332.486,114.7146 45.6994,5.5958 92.3314,5.5958 137.5644,0.4664 142.2277,-12.1245 279.7919,-66.6838 392.6414,-153.8857 28.4455,-22.3832 69.0154,-28.9118 103.5231,-17.2538 47.5646,16.3212 81.6059,67.1502 75.5438,117.5126 -2.798,29.3781 -18.1865,57.3575 -41.5025,75.0776 -89.5334,69.948 -191.1912,123.5747 -299.3775,158.0824 -139.4296,44.7667 -289.5846,56.4248 -434.6101,36.3729 -160.8803,-22.3834 -315.6986,-86.7354 -445.3355,-184.6626 C 989.2177,1657.041 886.6273,1531.601 819.0109,1389.3734 752.7935,1249.9437 720.6175,1094.1928 726.2133,939.84088 c 5.1295,-189.7922 68.0826,-377.2528 179.0669,-531.6047 119.3778,-167.875 292.3826,-297.0457 488.7031,-360.931595 z"
     id="path1-4"
     style="font-variation-settings:normal;opacity:1;vector-effect:none;fill:#002cb8;fill-opacity:1;stroke:none;stroke-width:0.437175;stroke-linecap:butt;stroke-linejoin:miter;stroke-miterlimit:4;stroke-dasharray:none;stroke-dashoffset:0;stroke-opacity:1;-inkscape-stroke:none;stop-color:#000000;stop-opacity:1" />
  <path
     fill="#6fbaf7"
     stroke="#6fbaf7"
     stroke-width="0.437175"
     opacity="1"
     d="m 2758.4356,312.17438 c 48.4972,-14.4559 105.3883,8.3937 128.7041,54.0931 111.9169,218.704 160.8805,468.6515 140.8286,713.46942 -13.9895,174.4036 -62.0205,346.4758 -142.6938,501.7603 -29.3781,55.4919 -108.1863,73.2122 -159.0151,36.8393 -47.0984,-30.311 -62.4868,-97.9272 -34.5077,-146.8908 155.7509,-305.9059 157.1499,-685.02412 3.2642,-991.86252 -13.9895,-25.1812 -21.4506,-55.0258 -14.4559,-83.4713 7.9275,-39.6371 39.1709,-73.2122 77.8756,-83.9375 z"
     id="path3-9"
     style="stroke:none" />
  <path
     fill="#002cb8"
     stroke="#002cb8"
     stroke-width="0.437175"
     opacity="1"
     d="m 1379.0612,443.21028 c 197.7196,-119.378 464.921,-116.1137 657.0448,13.9895 47.5646,34.9741 57.3573,109.5852 20.518,155.7509 -33.1087,45.233 -101.6577,58.7563 -148.756,28.4455 -74.6111,-47.5646 -165.0774,-68.0828 -252.7454,-57.8237 -87.6681,9.3263 -171.6058,49.8962 -233.1599,112.8495 -61.5543,61.0879 -101.6578,143.1602 -111.4505,229.4293 -8.8601,69.948 2.7978,142.22762 31.7097,206.57982 38.2382,84.8701 107.72,155.2845 192.5901,194.4554 86.7356,41.0361 188.3932,47.5646 279.792,19.119 122.1758,-37.3055 223.3672,-138.497 258.3413,-261.139 -87.6683,0.4662 -175.3364,0 -263.0044,0 -41.9689,0 -82.5387,-26.114 -99.7926,-63.8859 -21.4506,-43.36782 -10.2589,-99.79252 26.114,-131.50222 18.6528,-16.7875 43.3676,-27.9792 68.549,-28.9118 132.4349,-0.9326 264.4034,-0.4664 396.8383,-0.4664 43.3676,-1.399 85.3365,25.6476 102.5903,65.2849 14.9223,30.7771 10.259,65.751 8.3938,98.85972 -11.6581,143.6266 -76.4766,282.1237 -179.0669,383.7812 -98.3934,98.86 -231.2947,162.7459 -370.258,176.7354 -136.6318,14.9222 -277.9266,-18.1865 -394.0403,-92.3313 -117.0464,-74.145 -208.445,-189.326 -253.2117,-320.8281 -45.6994,-132.9013 -43.3678,-281.65722 4.1968,-413.62582 46.632,-130.5696 139.896,-243.4191 258.8076,-314.7659 z"
     id="path6"
     style="fill:#ffffff;stroke:none" />
  <path
     fill="#6fbaf7"
     stroke="#6fbaf7"
     stroke-width="0.437175"
     opacity="1"
     d="m 2455.3275,504.29818 c 48.031,-12.5907 102.5904,12.1243 124.9738,56.4247 121.2431,256.4759 121.2431,567.04492 0,823.52092 -15.3885,30.3108 -46.1657,52.6942 -80.207,58.2899 -39.6372,6.995 -82.0723,-9.7927 -106.7873,-41.5024 -25.6476,-33.1087 -30.3108,-80.6733 -11.6581,-117.9788 90.4662,-196.3208 89.0673,-431.81242 -2.3316,-627.66682 -27.5128,-60.1551 11.6581,-137.098 76.0102,-151.0875 z"
     id="path9"
     style="stroke:none" />
  <path
     fill="#002cb8"
     stroke="#002cb8"
     stroke-width="0.298952"
     opacity="1"
     d="m 3172.0341,2337.2161 c 3.5076,-14.0309 17.5385,-24.554 32.5259,-23.9163 28.6993,0 57.3987,-0.3189 86.0981,0 16.5818,-0.6377 31.8882,14.0308 31.8882,30.6127 0.6377,84.1849 -0.3189,168.3696 0.3188,252.2356 41.7735,-37.6281 95.9835,-59.312 151.4689,-64.7331 62.8198,-6.3776 129.1472,4.4644 182.4005,39.8603 66.6464,43.368 103.3178,122.1318 109.3765,199.6201 1.9133,74.6184 0.6378,149.2367 0.9567,223.8551 -0.3189,54.2099 0.6377,108.7387 -0.6378,162.9486 -4.1455,13.712 -18.1763,22.6407 -32.2071,22.0029 -27.7427,0 -55.8043,0.3188 -83.547,0 -14.9874,0.6378 -29.0183,-10.5231 -32.2071,-24.8727 0.3189,-96.9402 0,-193.8803 0,-290.8204 0,-19.4518 0.6377,-38.9035 -1.2755,-58.3553 -3.8267,-47.5134 -21.684,-97.8968 -61.8631,-126.9151 -32.526,-24.235 -75.894,-29.656 -115.1164,-22.9595 -30.6126,5.421 -59.312,21.684 -79.0827,45.919 -27.4239,33.8016 -37.947,78.1261 -38.2659,120.8563 -0.3188,108.4198 0,217.1585 -0.3188,325.5785 0.3188,15.9441 -13.0742,30.2936 -29.0183,31.2503 -22.3217,0.9567 -44.3246,0 -66.6463,0.3189 -10.5231,0 -20.7273,0.6378 -30.9315,-0.9566 -11.7987,-2.5511 -21.3652,-12.4364 -23.9161,-23.9161 0,-272.6441 0,-544.9692 0,-817.6132 z"
     id="path4"
     style="fill:#ffffff;stroke:none" />
  <path
     fill="#002cb8"
     stroke="#002cb8"
     stroke-width="0.298952"
     opacity="1"
     d="m 369.06176,2352.2035 c 65.68973,-7.3344 133.29267,-1.9133 195.79349,19.7706 74.61838,25.8294 142.22145,72.7051 189.41585,136.1626 10.2043,11.7986 14.9875,29.3371 7.9721,44.0057 -8.2909,19.1329 -30.2938,25.1917 -46.5568,36.0337 -18.4951,9.2476 -36.3525,27.1049 -58.99308,21.684 -17.5385,-2.2323 -26.14834,-19.1329 -36.99032,-31.2505 -41.77352,-46.2379 -101.72339,-74.2995 -163.58648,-80.6772 -49.10777,-4.7832 -99.80995,0.6379 -145.72893,19.7708 -53.89109,22.6406 -98.85341,64.4141 -126.91508,115.4352 -27.74274,50.7022 -36.6714,110.0142 -31.25046,167.0941 3.82664,45.2813 19.13301,89.9248 45.60016,127.2339 36.35259,51.34 90.56249,89.9247 151.78784,106.1877 43.36792,10.8419 89.60582,14.6686 133.61148,3.5077 55.8043,-13.3931 109.05765,-41.1358 148.59892,-83.5471 28.06167,-29.9748 47.19455,-68.2406 55.16665,-108.4198 0.3188,-1.5945 0.9566,-5.1021 1.2755,-6.6965 -77.80718,0.3188 -155.61437,0 -233.10263,0.3188 -16.90076,-3.1888 -31.56939,-17.8574 -32.52605,-35.3959 -0.95655,-15.9441 0,-31.8881 -0.31881,-47.8322 0,-11.4798 -1.27559,-24.235 5.42093,-34.4393 7.65319,-13.0742 22.64063,-20.0895 37.30925,-19.1328 106.50648,0 213.01311,0 319.51961,0 28.3805,-0.9567 53.5722,25.1915 51.3401,53.5721 -1.2756,40.1791 -0.319,81.3148 -10.2043,120.5374 -11.7986,50.0644 -31.8882,98.2155 -60.5876,140.9457 -23.9161,36.0337 -56.1232,65.6898 -91.519,90.2436 -46.23792,31.5694 -97.89676,54.8477 -152.10677,68.2408 -72.70506,18.4951 -149.87451,14.0308 -221.94184,-5.4211 -99.17221,-27.1049 -185.58924,-94.389 -239.480217,-181.4438 -58.0365403,-93.1135 -72.38625,-209.1865 -50.06455,-315.3742 21.68396,-104.5932 88.96809,-197.069 177.298437,-256.3811 53.89097,-36.0336 117.02964,-57.7176 181.7626,-64.7329 z"
     id="path7"
     style="fill:#ffffff;stroke:none" />
  <path
     fill="#002cb8"
     stroke="#002cb8"
     stroke-width="0.298952"
     opacity="1"
     d="m 1298.6027,2351.2468 c 58.0366,-5.421 117.6674,-1.2756 173.4718,16.2629 84.8226,26.1484 162.3109,80.6772 211.4187,155.2956 9.5665,14.0308 5.1021,35.7147 -9.8853,44.3246 -21.0462,12.7553 -43.0491,24.8727 -64.4142,37.628 -9.5665,5.421 -19.4518,12.4364 -30.9315,10.842 -10.842,-0.3189 -19.4518,-7.9721 -25.1917,-16.5818 -33.8015,-50.3834 -88.9681,-84.5037 -147.6423,-96.9402 -47.8324,-9.5664 -98.2156,-7.3343 -145.0914,5.74 -51.9777,14.6685 -98.2156,46.8756 -130.4228,89.6058 -30.9315,39.8602 -48.47,88.968 -52.6155,139.0324 -5.4209,57.0799 2.87,116.7108 30.2938,167.7319 26.4672,49.4267 68.8786,90.2436 120.2185,112.5654 47.8324,21.0461 101.4046,26.4672 152.7446,21.365 62.182,-6.6965 122.4507,-36.6714 161.992,-85.4603 7.6531,-9.2476 12.7553,-21.0462 22.9595,-27.7428 10.2042,-6.3776 23.9161,-5.4209 34.1203,0.9567 24.2351,14.0308 48.789,27.7427 73.024,41.7735 12.4364,6.6965 18.8141,22.6406 14.9875,36.3526 -3.8266,10.5231 -11.4797,19.1329 -17.8575,28.0616 -74.2994,98.8534 -198.0256,156.571 -321.114,154.9766 -95.9835,1.5944 -193.8803,-28.0616 -268.8176,-89.2869 -43.6868,-35.3959 -80.6771,-79.0828 -107.1444,-128.8283 -27.7427,-51.9778 -42.7301,-110.0143 -46.2379,-169.0074 -4.1454,-63.4576 3.5078,-128.5095 26.1484,-188.4592 33.1638,-86.736 97.8968,-161.0355 178.255,-207.5922 51.0211,-29.656 109.0577,-46.8756 167.732,-52.6155 z"
     id="path8"
     style="fill:#ffffff;stroke:none" />
  <path
     fill="#002cb8"
     stroke="#002cb8"
     stroke-width="0.298952"
     opacity="1"
     d="m 2004.2884,2525.3564 c 60.2687,-12.1176 125.3206,-8.6099 180.8061,19.1329 41.4546,20.4083 76.5316,55.8043 91.519,100.1288 1.9134,-28.6994 -0.3188,-57.7176 0.9567,-86.7358 0.3189,-15.6253 15.3064,-28.6994 30.9315,-28.6994 29.9749,-0.3189 59.631,-0.3189 89.6059,0 16.9007,-0.3189 31.8882,14.6686 31.2504,31.8882 0,189.097 0,378.1939 0,567.6098 0,8.2909 0.319,16.9008 -0.6377,25.5105 -2.2323,14.6687 -16.263,25.5106 -30.9315,25.5106 -24.554,0.3188 -48.789,-0.3189 -73.343,0 -8.2909,0 -16.5818,0.6378 -24.235,-1.2756 -12.4364,-3.5076 -22.0029,-14.6685 -22.6406,-27.4238 -0.9567,-19.4518 0.3189,-38.9035 -0.6377,-58.0365 -16.5819,14.6686 -31.8882,30.6127 -50.0645,43.368 -45.2812,33.8014 -101.0855,53.5722 -157.5277,53.5722 -62.182,0.6377 -124.3639,-18.8141 -174.4284,-55.8044 -48.7889,-35.3958 -85.4603,-86.0981 -107.1444,-141.9024 -26.1482,-66.6464 -31.5692,-140.308 -19.7706,-210.4622 11.1609,-65.3708 40.8169,-128.5093 87.6925,-176.0227 40.1791,-40.817 92.7946,-68.8785 148.599,-80.3582 m 63.1386,129.7849 c -45.6,6.6965 -87.3736,33.1637 -113.203,71.4295 -47.1946,68.5596 -49.1079,163.9053 -9.2476,236.2915 21.684,40.8169 59.312,74.2995 104.5933,86.417 57.7176,16.5819 123.7262,0.6378 167.0941,-41.1357 37.947,-35.077 57.3987,-86.736 59.9497,-137.7571 3.8267,-58.9931 -12.1174,-122.4506 -54.8476,-165.1808 -39.2225,-40.8168 -98.8534,-58.9932 -154.3389,-50.0644 z"
     id="path10"
     style="fill:#ffffff;stroke:none" />
  <path
     fill="#002cb8"
     stroke="#002cb8"
     stroke-width="0.298952"
     opacity="1"
     d="m 2759.0819,2520.5731 c 66.9652,-6.0587 137.757,2.551 195.4746,38.9036 51.6589,31.8882 85.7793,88.3302 93.1135,148.2801 1.9134,17.5385 -13.393,34.7581 -30.9315,34.1203 -27.7427,0.319 -55.8043,0 -83.2281,0.319 -9.5665,0.3188 -19.7708,-0.9567 -26.7861,-7.6532 -9.8854,-7.9721 -10.5232,-21.3652 -15.6253,-32.2071 -9.5664,-22.3217 -29.9749,-38.5848 -52.9344,-45.919 -24.235,-7.6532 -50.0645,-7.972 -74.9372,-4.7832 -20.4085,2.8699 -41.4546,9.2476 -55.4855,25.1917 -15.3063,16.9006 -15.9441,45.6 -0.9567,62.8197 15.6253,18.1762 38.9037,27.1049 60.9066,35.077 62.8197,21.0462 129.1471,32.207 188.4591,63.1386 34.4393,17.8574 66.3275,44.0057 83.866,79.0827 27.7427,55.1666 22.9595,124.6829 -12.1175,175.385 -29.6561,44.0058 -77.8072,71.7486 -128.1905,85.4604 -61.5443,16.5818 -127.8717,16.263 -189.097,-0.9567 -46.8757,-13.393 -91.2002,-38.2658 -124.0451,-74.2994 -25.8294,-28.0616 -44.3246,-63.4575 -50.3834,-101.4045 -3.1888,-17.8573 12.4364,-35.7147 30.6128,-35.7147 30.9315,-0.3189 61.863,0 92.4757,0 14.6686,-0.6378 28.3804,9.2476 32.2071,23.2783 4.7832,16.2631 14.3497,31.2505 27.4238,42.0925 26.4672,22.3217 62.5008,30.2938 96.6212,28.0615 26.4672,-1.2754 54.21,-6.6965 74.9373,-24.235 17.8574,-14.9874 24.5539,-43.049 11.7986,-63.1385 -11.1609,-16.9008 -30.9315,-25.8296 -49.4267,-33.4826 -53.5721,-20.0896 -110.3331,-29.3372 -163.9053,-49.4267 -39.2224,-14.3497 -78.1261,-34.1205 -106.1876,-66.0086 -40.817,-45.9191 -49.4267,-115.1164 -28.0617,-171.5585 17.8574,-46.5568 57.0799,-81.9527 101.4045,-102.68 32.2071,-15.6252 67.6029,-24.235 102.9988,-27.7427 z"
     id="path11"
     style="fill:#ffffff;stroke:none" />
</svg>
